<svg id="Layer_1" data-name="Layer 1" xmlns="http://www.w3.org/2000/svg" viewBox="0 0 203.13 74.35"><defs><style>.cls-1{fill:#fff;fill-rule:evenodd;}</style></defs><title>logo</title><path class="cls-1" d="M203,52H184.65c.3,4.26,2.16,7.08,7.08,7.08,2.34,0,4.86-.54,8.94-2l2.22,5.94A28,28,0,0,1,190.59,66C179,66,175,58.8,175,49.44c0-10.86,6.66-16,14.88-16,7.92,0,13.2,4.14,13.2,14.52C203.13,48.66,203.07,50.76,203,52ZM189.75,39.9c-2.58,0-4.68,1.44-5,6.36h9.54C194.19,41.22,192.21,39.9,189.75,39.9ZM164.19,66c-7.14,0-9.84-2.88-9.84-9.66V40.62c0-.36,0-.6-.48-.6h-4.2V34.68c5.28-.6,7.38-3.24,8-9.78h5.7v8.52c0,.42,0,.6.48.6h8.46v6h-8.94V54.36c0,3.54.84,4.92,4.08,4.92a14.3,14.3,0,0,0,4.86-1L174,63.6A24,24,0,0,1,164.19,66Zm-32.82,0c-11,0-15.42-6.72-15.42-16.14,0-10,5.22-16.44,16.2-16.44S147.57,40,147.57,49.2C147.57,59.4,142.41,66,131.37,66ZM132,39.9c-4,0-6.6,2.46-6.6,9.66s2.34,10.14,6.36,10.14,6.3-2.7,6.3-10.2C138.09,42.42,135.93,39.9,132,39.9ZM93.36,68C83.42,55.58,71.73,46.12,63.54,43.17l19.3-11.83,9.36,18.33S107.4,12.42,131.37,0c-.58,8.87-2.92,16.56,1.17,26C122,28.38,100.38,55,93.36,68Zm9.18-49h-44V63H86.86q1.41,1.49,3,3H55.54V16h50V22.1q-1.59,2.58-3,5ZM33.27,74.35A8.38,8.38,0,0,1,28,72.58l1.81-3a7.08,7.08,0,0,0,3.23,1c1.52,0,2.48-1,3.33-2.48l1-1.77-4-14.82c-.14-.43-.25-.5-.64-.6l-1.38-.32L31.81,48h6.24l.35.39,1,4.57L41,60.34h.18l4.5-9.43-2.16-.32L43.87,48h6.56l.5,1.1L40.64,69.31C38.87,72.68,37.06,74.35,33.27,74.35ZM28.19,63.57l1.74.25-.35,2.62h-7.7l-.07-.11.74-4.18,1.1-7.52c.21-1.56.14-2.34-.82-2.34s-2.41,1.13-3.9,2.45L17.8,62.86c-.07.57-.07.64.43.71l1.77.25-.35,2.62H12l-.07-.14.78-4.5,1-7.16c.21-1.35.28-2.27-.74-2.27-1.35,0-3.09,1.52-4,2.38l-1.1,8.12c-.07.57-.07.64.46.71l1.77.25-.35,2.62H0l.35-2.66,1.56-.21c.46-.07.57-.18.64-.71L4,52c.07-.39,0-.64-.32-.74L2,50.66,2.38,48h7L9,50.87l.11,0c1.84-1.56,3.79-3.3,6.49-3.3A3.15,3.15,0,0,1,19,50.84l.11,0c1.74-1.52,3.83-3.26,6.35-3.26s3.65,1.31,3.72,3.83A19.21,19.21,0,0,1,29,53.75l-1.28,9.11C27.66,63.43,27.66,63.5,28.19,63.57ZM102.54,63V56.84q1.44-2,3-4.11V66H96.45c.59-1,1.21-2,1.88-3Z"/></svg>